<svg width="47" height="47" viewBox="0 0 47 47" fill="none" xmlns="http://www.w3.org/2000/svg">
<g filter="url(#filter0_d_452_414)">
<ellipse cx="22.145" cy="22.2391" rx="22.145" ry="22.147" fill="#D9D9D9"/>
<path d="M43.2955 22.2391C43.2955 33.9214 33.826 43.3917 22.145 43.3917C10.464 43.3917 0.994466 33.9214 0.994466 22.2391C0.994466 10.5568 10.464 1.08661 22.145 1.08661C33.826 1.08661 43.2955 10.5568 43.2955 22.2391Z" stroke="black" stroke-width="1.98893"/>
</g>
<path opacity="0.8" d="M20.9805 20.5996C20.6914 20.5996 20.2461 20.5762 19.6445 20.5293C19.0586 20.4863 18.6133 20.4668 18.3086 20.4707H17.8926C17.9043 21.0098 17.957 21.8848 18.0508 23.0957C18.1367 24.2246 18.1797 25.1016 18.1797 25.7266C18.1797 25.8633 18.1934 26.0703 18.2207 26.3477C18.248 26.625 18.2617 26.834 18.2617 26.9746C18.2617 27.2402 18.2188 27.4688 18.1328 27.6602C18.0234 27.918 17.8535 28.0469 17.623 28.0469C17.4668 28.0469 17.3262 27.9922 17.2012 27.8828C17.0762 27.7734 17.0137 27.6328 17.0137 27.4609C17.0137 27.4023 17.0234 27.3145 17.043 27.1973C17.0625 27.0801 17.0723 26.9922 17.0723 26.9336C17.0723 26.7422 17.0586 26.4551 17.0312 26.0723C17.0078 25.6895 16.9961 25.4004 16.9961 25.2051C16.9961 24.6465 16.9512 23.8613 16.8613 22.8496C16.7676 21.7559 16.7148 20.9707 16.7031 20.4941L16.1699 20.5C15.3145 20.5 14.6426 20.4375 14.1543 20.3125C13.8379 20.2305 13.6797 20.0371 13.6797 19.7324C13.6797 19.5723 13.7305 19.4316 13.832 19.3105C13.9492 19.1738 14.0996 19.1113 14.2832 19.123C14.4199 19.1309 14.7324 19.166 15.2207 19.2285C15.6113 19.2754 15.9277 19.2988 16.1699 19.2988C16.4043 19.2988 16.7598 19.2949 17.2363 19.2871C17.7129 19.2754 18.0684 19.2695 18.3027 19.2695C18.6035 19.2695 19.0488 19.291 19.6387 19.334C20.2324 19.377 20.6797 19.3984 20.9805 19.3984C21.1484 19.3984 21.2891 19.457 21.4023 19.5742C21.5156 19.6875 21.5723 19.8301 21.5723 20.002C21.5723 20.1699 21.5156 20.3125 21.4023 20.4297C21.2891 20.543 21.1484 20.5996 20.9805 20.5996ZM27.7773 25.334C27.7773 26.2871 27.4512 26.998 26.7988 27.4668C26.2285 27.877 25.4492 28.082 24.4609 28.082C24.2734 28.082 24.0156 28.0742 23.6875 28.0586C23.3203 28.0391 23.0625 28.0293 22.9141 28.0293C22.8398 28.0527 22.7656 28.0645 22.6914 28.0645C22.2734 28.0645 22.0645 27.7188 22.0645 27.0273C22.0645 26.9258 22.0918 26.5859 22.1465 26.0078C22.2207 25.2266 22.2578 24.4961 22.2578 23.8164C22.2578 23.4219 22.2383 22.834 22.1992 22.0527C22.1602 21.2715 22.1406 20.6855 22.1406 20.2949C22.1406 19.8418 22.166 19.5605 22.2168 19.4512C22.3105 19.2363 22.5547 19.1289 22.9492 19.1289C23.2422 19.1289 23.6836 19.1211 24.2734 19.1055C24.8672 19.0898 25.3125 19.082 25.6094 19.082H27.0859C27.2578 19.082 27.3965 19.1367 27.502 19.2461C27.6113 19.3516 27.666 19.4902 27.666 19.6621C27.666 19.8301 27.6113 19.9688 27.502 20.0781C27.3965 20.1875 27.2578 20.2422 27.0859 20.2422C26.8086 20.2422 25.5566 20.2578 23.3301 20.2891C23.3496 20.9336 23.3848 21.6523 23.4355 22.4453C23.7793 22.4336 24.0215 22.4277 24.1621 22.4277C25.3613 22.4277 26.2324 22.6074 26.7754 22.9668C27.4434 23.4121 27.7773 24.2012 27.7773 25.334ZM26.6113 25.334C26.6113 24.6191 26.4121 24.1328 26.0137 23.875C25.7012 23.6719 25.168 23.5703 24.4141 23.5703C24.2031 23.5703 23.877 23.5859 23.4355 23.6172C23.4473 23.7695 23.4531 23.9355 23.4531 24.1152C23.4531 24.4824 23.4023 25.4121 23.3008 26.9043C23.8125 26.916 24.1992 26.9219 24.4609 26.9219C25.8945 26.9219 26.6113 26.3926 26.6113 25.334Z" fill="black"/>
<mask id="mask0_452_414" style="mask-type:alpha" maskUnits="userSpaceOnUse" x="0" y="0" width="45" height="45">
<path d="M43.2955 22.2391C43.2955 33.9214 33.826 43.3917 22.145 43.3917C10.464 43.3917 0.994466 33.9214 0.994466 22.2391C0.994466 10.5568 10.464 1.08661 22.145 1.08661C33.826 1.08661 43.2955 10.5568 43.2955 22.2391Z" fill="#E3E3E3" stroke="black" stroke-width="1.98893"/>
</mask>
<g mask="url(#mask0_452_414)">
<g style="mix-blend-mode:soft-light">
<rect width="6.01853" height="72.8287" transform="matrix(0.918978 0.394309 -0.394249 0.919004 25.1015 -12.5481)" fill="white"/>
</g>
<g style="mix-blend-mode:soft-light">
<rect width="1.86305" height="72.8287" transform="matrix(0.918978 0.394309 -0.394249 0.919004 32.9255 -12.5481)" fill="white"/>
</g>
<g style="mix-blend-mode:soft-light">
<rect width="1.86305" height="72.8287" transform="matrix(0.918978 0.394309 -0.394249 0.919004 46.1661 -12.5481)" fill="white"/>
</g>
</g>
<defs>
<filter id="filter0_d_452_414" x="0" y="0.0921402" width="46.7761" height="46.7802" filterUnits="userSpaceOnUse" color-interpolation-filters="sRGB">
<feFlood flood-opacity="0" result="BackgroundImageFix"/>
<feColorMatrix in="SourceAlpha" type="matrix" values="0 0 0 0 0 0 0 0 0 0 0 0 0 0 0 0 0 0 127 0" result="hardAlpha"/>
<feOffset dx="2.48616" dy="2.48616"/>
<feComposite in2="hardAlpha" operator="out"/>
<feColorMatrix type="matrix" values="0 0 0 0 0.819608 0 0 0 0 0.819608 0 0 0 0 0.819608 0 0 0 1 0"/>
<feBlend mode="normal" in2="BackgroundImageFix" result="effect1_dropShadow_452_414"/>
<feBlend mode="normal" in="SourceGraphic" in2="effect1_dropShadow_452_414" result="shape"/>
</filter>
</defs>
</svg>
