<svg width="47" height="47" viewBox="0 0 47 47" fill="none" xmlns="http://www.w3.org/2000/svg">
<g filter="url(#filter0_d_452_394)">
<ellipse cx="22.145" cy="22.3037" rx="22.145" ry="22.147" fill="#D9D9D9"/>
<path d="M43.2955 22.3037C43.2955 33.986 33.826 43.4562 22.145 43.4562C10.464 43.4562 0.994466 33.986 0.994466 22.3037C0.994466 10.6214 10.464 1.15113 22.145 1.15113C33.826 1.15113 43.2955 10.6214 43.2955 22.3037Z" stroke="black" stroke-width="1.98893"/>
</g>
<path opacity="0.8" d="M17.4199 23.5605C17.3105 23.5605 17.0723 23.5352 16.7051 23.4844C16.6738 24.0742 16.6582 25.1074 16.6582 26.584C16.6582 26.7402 16.6074 26.873 16.5059 26.9824C16.4043 27.0879 16.2773 27.1406 16.125 27.1406C15.9688 27.1406 15.8398 27.0879 15.7383 26.9824C15.6367 26.873 15.5859 26.7402 15.5859 26.584V24.8613C15.5859 24.2871 15.6211 23.4785 15.6914 22.4355C15.7695 21.3066 15.8125 20.498 15.8203 20.0098V19.2012C15.8203 18.8145 15.8438 18.5332 15.8906 18.3574C15.9805 18.0137 16.1719 17.8652 16.4648 17.9121C16.5898 17.873 16.7676 17.8438 16.998 17.8242C17.2285 17.8047 17.5117 17.7949 17.8477 17.7949C18.5625 17.7949 19.2324 18.0391 19.8574 18.5273C20.5449 19.0664 20.8887 19.7148 20.8887 20.4727C20.8887 21.4414 20.5215 22.2129 19.7871 22.7871C19.1309 23.3027 18.3418 23.5605 17.4199 23.5605ZM17.7129 18.9082C17.541 18.9082 17.3867 18.9121 17.25 18.9199C17.1172 18.9277 17.0039 18.9395 16.9102 18.9551L16.8984 20.0332L16.7754 22.3652L17.4199 22.4414C18.0762 22.4414 18.6289 22.2754 19.0781 21.9434C19.5703 21.5801 19.8164 21.0898 19.8164 20.4727C19.8164 20.0352 19.582 19.6582 19.1133 19.3418C18.6797 19.0527 18.2129 18.9082 17.7129 18.9082ZM27.8672 24.334C27.8672 25.2871 27.541 25.998 26.8887 26.4668C26.3184 26.877 25.5391 27.082 24.5508 27.082C24.3633 27.082 24.1055 27.0742 23.7773 27.0586C23.4102 27.0391 23.1523 27.0293 23.0039 27.0293C22.9297 27.0527 22.8555 27.0645 22.7812 27.0645C22.3633 27.0645 22.1543 26.7188 22.1543 26.0273C22.1543 25.9258 22.1816 25.5859 22.2363 25.0078C22.3105 24.2266 22.3477 23.4961 22.3477 22.8164C22.3477 22.4219 22.3281 21.834 22.2891 21.0527C22.25 20.2715 22.2305 19.6855 22.2305 19.2949C22.2305 18.8418 22.2559 18.5605 22.3066 18.4512C22.4004 18.2363 22.6445 18.1289 23.0391 18.1289C23.332 18.1289 23.7734 18.1211 24.3633 18.1055C24.957 18.0898 25.4023 18.082 25.6992 18.082H27.1758C27.3477 18.082 27.4863 18.1367 27.5918 18.2461C27.7012 18.3516 27.7559 18.4902 27.7559 18.6621C27.7559 18.8301 27.7012 18.9688 27.5918 19.0781C27.4863 19.1875 27.3477 19.2422 27.1758 19.2422C26.8984 19.2422 25.6465 19.2578 23.4199 19.2891C23.4395 19.9336 23.4746 20.6523 23.5254 21.4453C23.8691 21.4336 24.1113 21.4277 24.252 21.4277C25.4512 21.4277 26.3223 21.6074 26.8652 21.9668C27.5332 22.4121 27.8672 23.2012 27.8672 24.334ZM26.7012 24.334C26.7012 23.6191 26.502 23.1328 26.1035 22.875C25.791 22.6719 25.2578 22.5703 24.5039 22.5703C24.293 22.5703 23.9668 22.5859 23.5254 22.6172C23.5371 22.7695 23.543 22.9355 23.543 23.1152C23.543 23.4824 23.4922 24.4121 23.3906 25.9043C23.9023 25.916 24.2891 25.9219 24.5508 25.9219C25.9844 25.9219 26.7012 25.3926 26.7012 24.334Z" fill="black"/>
<mask id="mask0_452_394" style="mask-type:alpha" maskUnits="userSpaceOnUse" x="0" y="0" width="45" height="45">
<path d="M43.2955 22.3037C43.2955 33.986 33.826 43.4562 22.145 43.4562C10.464 43.4562 0.994466 33.986 0.994466 22.3037C0.994466 10.6214 10.464 1.15113 22.145 1.15113C33.826 1.15113 43.2955 10.6214 43.2955 22.3037Z" fill="#E3E3E3" stroke="black" stroke-width="1.98893"/>
</mask>
<g mask="url(#mask0_452_394)">
<g style="mix-blend-mode:soft-light">
<rect width="6.01853" height="72.8287" transform="matrix(0.918978 0.394309 -0.394249 0.919004 29.3145 -12.4836)" fill="white"/>
</g>
<g style="mix-blend-mode:soft-light">
<rect width="1.86305" height="72.8287" transform="matrix(0.918978 0.394309 -0.394249 0.919004 37.1385 -12.4836)" fill="white"/>
</g>
</g>
<defs>
<filter id="filter0_d_452_394" x="0" y="0.156662" width="46.7761" height="46.7802" filterUnits="userSpaceOnUse" color-interpolation-filters="sRGB">
<feFlood flood-opacity="0" result="BackgroundImageFix"/>
<feColorMatrix in="SourceAlpha" type="matrix" values="0 0 0 0 0 0 0 0 0 0 0 0 0 0 0 0 0 0 127 0" result="hardAlpha"/>
<feOffset dx="2.48616" dy="2.48616"/>
<feComposite in2="hardAlpha" operator="out"/>
<feColorMatrix type="matrix" values="0 0 0 0 0.819608 0 0 0 0 0.819608 0 0 0 0 0.819608 0 0 0 1 0"/>
<feBlend mode="normal" in2="BackgroundImageFix" result="effect1_dropShadow_452_394"/>
<feBlend mode="normal" in="SourceGraphic" in2="effect1_dropShadow_452_394" result="shape"/>
</filter>
</defs>
</svg>
