<svg width="47" height="48" viewBox="0 0 47 48" fill="none" xmlns="http://www.w3.org/2000/svg">
<g filter="url(#filter0_d_452_387)">
<ellipse cx="22.145" cy="22.4855" rx="22.145" ry="22.147" fill="#D9D9D9"/>
<path d="M43.2955 22.4855C43.2955 34.1678 33.826 43.638 22.145 43.638C10.464 43.638 0.994466 34.1678 0.994466 22.4855C0.994466 10.8032 10.464 1.33296 22.145 1.33296C33.826 1.33296 43.2955 10.8032 43.2955 22.4855Z" stroke="black" stroke-width="1.98893"/>
</g>
<path opacity="0.8" d="M17.918 25.5898C17.918 25.7233 17.8675 25.8356 17.7666 25.9268C17.6689 26.0146 17.5534 26.0586 17.4199 26.0586C17.1953 26.0586 17.0391 25.9268 16.9512 25.6631C16.7982 25.2041 16.4629 24.597 15.9453 23.8418C15.3073 22.9173 14.7848 22.4551 14.3779 22.4551C14.2477 22.4551 14.0654 22.4535 13.8311 22.4502C13.8311 22.7692 13.8294 23.0817 13.8262 23.3877C13.8229 23.8044 13.8213 24.1152 13.8213 24.3203C13.8213 25.0951 13.8115 25.5345 13.792 25.6387C13.7399 25.9316 13.5804 26.0781 13.3135 26.0781C12.988 26.0781 12.8252 25.9202 12.8252 25.6045C12.8252 25.3636 12.835 24.999 12.8545 24.5107C12.874 24.0192 12.8838 23.6514 12.8838 23.4072C12.8838 22.945 12.8675 22.2533 12.835 21.332C12.8024 20.4108 12.7861 19.7207 12.7861 19.2617C12.7861 18.7474 12.9538 18.4902 13.2891 18.4902C13.429 18.4902 13.5446 18.5358 13.6357 18.627C13.7269 18.7181 13.7725 18.8337 13.7725 18.9736C13.7725 19.2373 13.7904 20.0674 13.8262 21.4639C14.666 21.4639 15.3708 20.9056 15.9404 19.7891C16.3245 19.0339 16.7135 18.6562 17.1074 18.6562C17.2441 18.6562 17.3776 18.6823 17.5078 18.7344C17.6738 18.8027 17.7568 18.8955 17.7568 19.0127C17.7568 19.2666 17.6706 19.3936 17.498 19.3936C17.153 19.3936 16.8226 19.7793 16.5068 20.5508C16.2171 21.2572 15.7907 21.6966 15.2275 21.8691C15.693 22.0417 16.2578 22.5934 16.9219 23.5244C17.5859 24.4521 17.918 25.1406 17.918 25.5898ZM25.1152 18.915C25.1152 19.1234 25.1071 19.4391 25.0908 19.8623C25.0745 20.2855 25.0664 20.6012 25.0664 20.8096C25.0664 21.0505 25.0632 21.4102 25.0566 21.8887C25.0501 22.3672 25.0469 22.7269 25.0469 22.9678C25.0469 23.277 25.0339 23.7441 25.0078 24.3691C24.985 24.9909 24.9736 25.458 24.9736 25.7705C24.9736 25.9105 24.9281 26.026 24.8369 26.1172C24.7458 26.2083 24.6302 26.2539 24.4902 26.2539C24.3503 26.2539 24.2331 26.2083 24.1387 26.1172C24.0475 26.026 24.002 25.9105 24.002 25.7705C24.002 25.4548 24.0133 24.9811 24.0361 24.3496C24.0622 23.7181 24.0752 23.2445 24.0752 22.9287C24.0752 22.6911 24.0801 22.3232 24.0898 21.8252C24.0964 21.3662 24.0996 20.9967 24.0996 20.7168V20.5752C23.9141 20.8324 23.6146 21.1693 23.2012 21.5859C22.7552 22.0319 22.446 22.3656 22.2734 22.5869C21.7819 23.2184 21.2432 23.9525 20.6572 24.7891C20.4945 25.0299 20.2487 25.3864 19.9199 25.8584C19.7962 26.0277 19.6579 26.1123 19.5049 26.1123C19.3649 26.1123 19.2396 26.0667 19.1289 25.9756C19.0215 25.8844 18.971 25.7721 18.9775 25.6387L18.9824 25.5654C19.0964 23.5993 19.1533 22.5023 19.1533 22.2744C19.1533 21.3792 19.1354 20.5508 19.0996 19.7891C19.0964 19.7305 19.0866 19.5938 19.0703 19.3789C19.0573 19.2096 19.0508 19.0729 19.0508 18.9688C19.0508 18.8288 19.0964 18.7132 19.1875 18.6221C19.2786 18.5309 19.3942 18.4854 19.5342 18.4854C19.6742 18.4854 19.7897 18.5309 19.8809 18.6221C19.972 18.7132 20.0176 18.8288 20.0176 18.9688C20.0176 19.0697 20.0257 19.1999 20.042 19.3594C20.0583 19.5645 20.068 19.6947 20.0713 19.75C20.0908 20.2057 20.1006 20.7721 20.1006 21.4492C20.1006 22.2272 20.0778 22.9889 20.0322 23.7344C20.833 22.5462 21.8096 21.4004 22.9619 20.2969C23.1312 20.1309 23.3346 19.8867 23.5723 19.5645C23.8522 19.1868 24.0459 18.9362 24.1533 18.8125C24.2054 18.5651 24.3617 18.4414 24.6221 18.4414C24.9508 18.4414 25.1152 18.5993 25.1152 18.915ZM31.3359 23.7783C31.3359 24.5726 31.0641 25.165 30.5205 25.5557C30.0452 25.8975 29.3958 26.0684 28.5723 26.0684C28.416 26.0684 28.2012 26.0618 27.9277 26.0488C27.6217 26.0326 27.4069 26.0244 27.2832 26.0244C27.2214 26.0439 27.1595 26.0537 27.0977 26.0537C26.7493 26.0537 26.5752 25.7656 26.5752 25.1895C26.5752 25.1048 26.598 24.8216 26.6436 24.3398C26.7054 23.6888 26.7363 23.0801 26.7363 22.5137C26.7363 22.1849 26.7201 21.695 26.6875 21.0439C26.6549 20.3929 26.6387 19.9046 26.6387 19.5791C26.6387 19.2015 26.6598 18.9671 26.7021 18.876C26.7803 18.6969 26.9837 18.6074 27.3125 18.6074C27.5566 18.6074 27.9245 18.6009 28.416 18.5879C28.9108 18.5749 29.2819 18.5684 29.5293 18.5684H30.7598C30.903 18.5684 31.0186 18.6139 31.1064 18.7051C31.1976 18.793 31.2432 18.9085 31.2432 19.0518C31.2432 19.1917 31.1976 19.3073 31.1064 19.3984C31.0186 19.4896 30.903 19.5352 30.7598 19.5352C30.5286 19.5352 29.4854 19.5482 27.6299 19.5742C27.6462 20.1113 27.6755 20.7103 27.7178 21.3711C28.0042 21.3613 28.2061 21.3564 28.3232 21.3564C29.3226 21.3564 30.0485 21.5062 30.501 21.8057C31.0576 22.1768 31.3359 22.8343 31.3359 23.7783ZM30.3643 23.7783C30.3643 23.1826 30.1982 22.7773 29.8662 22.5625C29.6058 22.3932 29.1615 22.3086 28.5332 22.3086C28.3574 22.3086 28.0856 22.3216 27.7178 22.3477C27.7275 22.4746 27.7324 22.613 27.7324 22.7627C27.7324 23.0687 27.6901 23.8434 27.6055 25.0869C28.0319 25.0967 28.3542 25.1016 28.5723 25.1016C29.7669 25.1016 30.3643 24.6605 30.3643 23.7783Z" fill="black"/>
<mask id="mask0_452_387" style="mask-type:alpha" maskUnits="userSpaceOnUse" x="0" y="0" width="45" height="45">
<path d="M43.2955 22.4855C43.2955 34.1678 33.826 43.638 22.145 43.638C10.464 43.638 0.994466 34.1678 0.994466 22.4855C0.994466 10.8032 10.464 1.33296 22.145 1.33296C33.826 1.33296 43.2955 10.8032 43.2955 22.4855Z" fill="#E3E3E3" stroke="black" stroke-width="1.98893"/>
</mask>
<g mask="url(#mask0_452_387)">
<g style="mix-blend-mode:soft-light">
<rect width="6.01853" height="72.8287" transform="matrix(0.918978 0.394309 -0.394249 0.919004 25.1015 -12.3017)" fill="white"/>
</g>
<g style="mix-blend-mode:soft-light">
<rect width="1.86305" height="72.8287" transform="matrix(0.918978 0.394309 -0.394249 0.919004 32.9255 -12.3017)" fill="white"/>
</g>
<g style="mix-blend-mode:soft-light">
<rect width="1.86305" height="72.8287" transform="matrix(0.918978 0.394309 -0.394249 0.919004 46.1661 -12.3017)" fill="white"/>
</g>
</g>
<defs>
<filter id="filter0_d_452_387" x="0" y="0.338491" width="46.7761" height="46.7802" filterUnits="userSpaceOnUse" color-interpolation-filters="sRGB">
<feFlood flood-opacity="0" result="BackgroundImageFix"/>
<feColorMatrix in="SourceAlpha" type="matrix" values="0 0 0 0 0 0 0 0 0 0 0 0 0 0 0 0 0 0 127 0" result="hardAlpha"/>
<feOffset dx="2.48616" dy="2.48616"/>
<feComposite in2="hardAlpha" operator="out"/>
<feColorMatrix type="matrix" values="0 0 0 0 0.819608 0 0 0 0 0.819608 0 0 0 0 0.819608 0 0 0 1 0"/>
<feBlend mode="normal" in2="BackgroundImageFix" result="effect1_dropShadow_452_387"/>
<feBlend mode="normal" in="SourceGraphic" in2="effect1_dropShadow_452_387" result="shape"/>
</filter>
</defs>
</svg>
