<svg width="47" height="48" viewBox="0 0 47 48" fill="none" xmlns="http://www.w3.org/2000/svg">
<g filter="url(#filter0_d_452_400)">
<ellipse cx="22.145" cy="22.595" rx="22.145" ry="22.147" fill="#D9D9D9"/>
<path d="M43.2955 22.595C43.2955 34.2773 33.826 43.7476 22.145 43.7476C10.464 43.7476 0.994466 34.2773 0.994466 22.595C0.994466 10.9127 10.464 1.44249 22.145 1.44249C33.826 1.44249 43.2955 10.9127 43.2955 22.595Z" stroke="black" stroke-width="1.98893"/>
</g>
<path opacity="0.8" d="M15.5742 19.9102C15.5742 20.2357 15.3594 20.3984 14.9297 20.3984C14.9134 20.3984 14.7865 20.3936 14.5488 20.3838C14.5033 20.9046 14.4805 21.6468 14.4805 22.6104C14.4805 22.9587 14.4967 23.4795 14.5293 24.1729C14.5651 24.863 14.583 25.3822 14.583 25.7305C14.583 25.8379 14.5977 25.999 14.627 26.2139C14.6562 26.4287 14.6709 26.5898 14.6709 26.6973C14.6709 26.834 14.6237 26.9479 14.5293 27.0391C14.4382 27.1302 14.3226 27.1758 14.1826 27.1758C13.9124 27.1758 13.7529 27.0244 13.7041 26.7217C13.6423 26.3376 13.6113 26.0072 13.6113 25.7305C13.6113 25.3822 13.5951 24.863 13.5625 24.1729C13.5299 23.4795 13.5137 22.9587 13.5137 22.6104C13.5137 21.6436 13.5365 20.8851 13.582 20.335H13.5771C13.6455 20.3382 13.5299 20.3529 13.2305 20.3789C13.071 20.3887 12.7373 20.3936 12.2295 20.3936C11.3376 20.3936 10.4847 20.3789 9.6709 20.3496C9.7653 22 9.8125 23.1426 9.8125 23.7773C9.8125 23.9368 9.80273 24.1582 9.7832 24.4414C9.76042 24.7572 9.7474 24.9801 9.74414 25.1104C9.73763 25.2731 9.73763 25.488 9.74414 25.7549C9.75065 26.0934 9.75391 26.3099 9.75391 26.4043C9.75391 26.9219 9.58626 27.1807 9.25098 27.1807C9.01335 27.1807 8.86361 27.0798 8.80176 26.8779C8.77572 26.7933 8.7627 26.5964 8.7627 26.2871C8.7627 25.7533 8.76595 25.3529 8.77246 25.0859C8.77572 24.9622 8.78874 24.7441 8.81152 24.4316C8.83105 24.1549 8.84082 23.9368 8.84082 23.7773C8.84082 23.3932 8.79362 22.2425 8.69922 20.3252C8.63086 20.3252 8.51367 20.3268 8.34766 20.3301C8.19792 20.3333 8.08073 20.335 7.99609 20.335C7.85612 20.335 7.74056 20.2894 7.64941 20.1982C7.55827 20.1071 7.5127 19.9915 7.5127 19.8516C7.5127 19.513 7.77311 19.3438 8.29395 19.3438C8.59668 19.3438 9.05078 19.3568 9.65625 19.3828C10.2617 19.4056 10.7158 19.417 11.0186 19.417L15.0859 19.4268C15.2259 19.4268 15.3415 19.4723 15.4326 19.5635C15.527 19.6546 15.5742 19.7702 15.5742 19.9102ZM24.6562 19.9102C24.6562 20.2357 24.4414 20.3984 24.0117 20.3984C23.9954 20.3984 23.8685 20.3936 23.6309 20.3838C23.5853 20.9046 23.5625 21.6468 23.5625 22.6104C23.5625 22.9587 23.5788 23.4795 23.6113 24.1729C23.6471 24.863 23.665 25.3822 23.665 25.7305C23.665 25.8379 23.6797 25.999 23.709 26.2139C23.7383 26.4287 23.7529 26.5898 23.7529 26.6973C23.7529 26.834 23.7057 26.9479 23.6113 27.0391C23.5202 27.1302 23.4046 27.1758 23.2646 27.1758C22.9945 27.1758 22.835 27.0244 22.7861 26.7217C22.7243 26.3376 22.6934 26.0072 22.6934 25.7305C22.6934 25.3822 22.6771 24.863 22.6445 24.1729C22.612 23.4795 22.5957 22.9587 22.5957 22.6104C22.5957 21.6436 22.6185 20.8851 22.6641 20.335H22.6592C22.7275 20.3382 22.612 20.3529 22.3125 20.3789C22.153 20.3887 21.8193 20.3936 21.3115 20.3936C20.4196 20.3936 19.5667 20.3789 18.7529 20.3496C18.8473 22 18.8945 23.1426 18.8945 23.7773C18.8945 23.9368 18.8848 24.1582 18.8652 24.4414C18.8424 24.7572 18.8294 24.9801 18.8262 25.1104C18.8197 25.2731 18.8197 25.488 18.8262 25.7549C18.8327 26.0934 18.8359 26.3099 18.8359 26.4043C18.8359 26.9219 18.6683 27.1807 18.333 27.1807C18.0954 27.1807 17.9456 27.0798 17.8838 26.8779C17.8577 26.7933 17.8447 26.5964 17.8447 26.2871C17.8447 25.7533 17.848 25.3529 17.8545 25.0859C17.8577 24.9622 17.8708 24.7441 17.8936 24.4316C17.9131 24.1549 17.9229 23.9368 17.9229 23.7773C17.9229 23.3932 17.8757 22.2425 17.7812 20.3252C17.7129 20.3252 17.5957 20.3268 17.4297 20.3301C17.2799 20.3333 17.1628 20.335 17.0781 20.335C16.9382 20.335 16.8226 20.2894 16.7314 20.1982C16.6403 20.1071 16.5947 19.9915 16.5947 19.8516C16.5947 19.513 16.8551 19.3438 17.376 19.3438C17.6787 19.3438 18.1328 19.3568 18.7383 19.3828C19.3438 19.4056 19.7979 19.417 20.1006 19.417L24.168 19.4268C24.3079 19.4268 24.4235 19.4723 24.5146 19.5635C24.609 19.6546 24.6562 19.7702 24.6562 19.9102ZM30.75 25.667C30.75 25.7939 30.7435 25.9827 30.7305 26.2334C30.7174 26.484 30.7109 26.6729 30.7109 26.7998C30.7109 26.9365 30.6637 27.0505 30.5693 27.1416C30.4782 27.236 30.3643 27.2832 30.2275 27.2832C30.0876 27.2832 29.9704 27.236 29.876 27.1416C29.7848 27.0505 29.7393 26.9365 29.7393 26.7998C29.7393 26.5882 29.749 26.2725 29.7686 25.8525C29.7881 25.4326 29.7979 25.1169 29.7979 24.9053C29.7979 24.5049 29.7669 24.124 29.7051 23.7627C29.3079 24.3486 29.0199 24.7572 28.8408 24.9883C28.4958 25.431 28.1556 25.7956 27.8203 26.082C27.3776 26.4564 27.0488 26.7559 26.834 26.9805C26.6615 27.1595 26.4808 27.249 26.292 27.249C26.1488 27.249 26.0251 27.2116 25.9209 27.1367C25.807 27.0521 25.75 26.9398 25.75 26.7998C25.75 25.8721 25.7337 24.9053 25.7012 23.8994C25.6654 22.8545 25.6475 22.3451 25.6475 22.3711C25.6475 22.0391 25.8102 21.873 26.1357 21.873C26.4124 21.873 26.5736 22.0293 26.6191 22.3418C26.6257 22.3906 26.637 22.7113 26.6533 23.3037L26.7119 25.7305C27.2035 25.2975 27.7161 24.7507 28.25 24.0898C28.416 23.8848 28.8701 23.2891 29.6123 22.3027C29.8044 22.0456 30.0094 21.917 30.2275 21.917C30.3643 21.917 30.4782 21.9626 30.5693 22.0537C30.6637 22.1449 30.7109 22.2604 30.7109 22.4004C30.7109 22.7617 30.7174 23.307 30.7305 24.0361C30.7435 24.762 30.75 25.3057 30.75 25.667ZM37.4492 26.5898C37.4492 26.7233 37.3988 26.8356 37.2979 26.9268C37.2002 27.0146 37.0846 27.0586 36.9512 27.0586C36.7266 27.0586 36.5703 26.9268 36.4824 26.6631C36.3294 26.2041 35.9941 25.597 35.4766 24.8418C34.8385 23.9173 34.3161 23.4551 33.9092 23.4551C33.779 23.4551 33.5967 23.4535 33.3623 23.4502C33.3623 23.7692 33.3607 24.0817 33.3574 24.3877C33.3542 24.8044 33.3525 25.1152 33.3525 25.3203C33.3525 26.0951 33.3428 26.5345 33.3232 26.6387C33.2712 26.9316 33.1117 27.0781 32.8447 27.0781C32.5192 27.0781 32.3564 26.9202 32.3564 26.6045C32.3564 26.3636 32.3662 25.999 32.3857 25.5107C32.4053 25.0192 32.415 24.6514 32.415 24.4072C32.415 23.945 32.3988 23.2533 32.3662 22.332C32.3337 21.4108 32.3174 20.7207 32.3174 20.2617C32.3174 19.7474 32.485 19.4902 32.8203 19.4902C32.9603 19.4902 33.0758 19.5358 33.167 19.627C33.2581 19.7181 33.3037 19.8337 33.3037 19.9736C33.3037 20.2373 33.3216 21.0674 33.3574 22.4639C34.1973 22.4639 34.902 21.9056 35.4717 20.7891C35.8558 20.0339 36.2448 19.6562 36.6387 19.6562C36.7754 19.6562 36.9089 19.6823 37.0391 19.7344C37.2051 19.8027 37.2881 19.8955 37.2881 20.0127C37.2881 20.2666 37.2018 20.3936 37.0293 20.3936C36.6842 20.3936 36.3538 20.7793 36.0381 21.5508C35.7484 22.2572 35.3219 22.6966 34.7588 22.8691C35.2243 23.0417 35.7891 23.5934 36.4531 24.5244C37.1172 25.4521 37.4492 26.1406 37.4492 26.5898Z" fill="black"/>
<mask id="mask0_452_400" style="mask-type:alpha" maskUnits="userSpaceOnUse" x="0" y="0" width="45" height="45">
<path d="M43.2955 22.595C43.2955 34.2773 33.826 43.7476 22.145 43.7476C10.464 43.7476 0.994466 34.2773 0.994466 22.595C0.994466 10.9127 10.464 1.44249 22.145 1.44249C33.826 1.44249 43.2955 10.9127 43.2955 22.595Z" fill="#E3E3E3" stroke="black" stroke-width="1.98893"/>
</mask>
<g mask="url(#mask0_452_400)">
<g style="mix-blend-mode:soft-light">
<rect width="6.01852" height="72.8288" transform="matrix(-0.928611 -0.371056 -0.370998 0.928634 57.1519 -8.82343)" fill="white"/>
</g>
<g style="mix-blend-mode:soft-light">
<rect width="1.86304" height="72.8288" transform="matrix(-0.928611 -0.371056 -0.370998 0.928634 51.6195 -14.3559)" fill="white"/>
</g>
<g style="mix-blend-mode:soft-light">
<rect width="1.86305" height="72.8287" transform="matrix(0.918978 0.394309 -0.394249 0.919004 42.5552 -12.1922)" fill="white"/>
</g>
</g>
<defs>
<filter id="filter0_d_452_400" x="0" y="0.448029" width="46.7761" height="46.7802" filterUnits="userSpaceOnUse" color-interpolation-filters="sRGB">
<feFlood flood-opacity="0" result="BackgroundImageFix"/>
<feColorMatrix in="SourceAlpha" type="matrix" values="0 0 0 0 0 0 0 0 0 0 0 0 0 0 0 0 0 0 127 0" result="hardAlpha"/>
<feOffset dx="2.48616" dy="2.48616"/>
<feComposite in2="hardAlpha" operator="out"/>
<feColorMatrix type="matrix" values="0 0 0 0 0.819608 0 0 0 0 0.819608 0 0 0 0 0.819608 0 0 0 1 0"/>
<feBlend mode="normal" in2="BackgroundImageFix" result="effect1_dropShadow_452_400"/>
<feBlend mode="normal" in="SourceGraphic" in2="effect1_dropShadow_452_400" result="shape"/>
</filter>
</defs>
</svg>
