<svg width="47" height="47" viewBox="0 0 47 47" fill="none" xmlns="http://www.w3.org/2000/svg">
<g filter="url(#filter0_d_452_408)">
<circle cx="22.145" cy="22.1701" r="22.145" fill="#D9D9D9"/>
<circle cx="22.145" cy="22.1701" r="21.1505" stroke="black" stroke-width="1.98893"/>
</g>
<path opacity="0.8" d="M16.3906 20.5215C16.1823 20.5215 16.026 20.3994 15.9219 20.1553C15.8307 19.9469 15.7461 19.82 15.668 19.7744C15.5996 19.7386 15.4303 19.7207 15.1602 19.7207C14.6882 19.7207 14.1641 20.082 13.5879 20.8047C12.8066 21.7747 12.416 22.6943 12.416 23.5635C12.416 23.9834 12.5511 24.3447 12.8213 24.6475C13.098 24.96 13.4316 25.1162 13.8223 25.1162C14.1576 25.1162 14.4945 25.0299 14.833 24.8574C15.0218 24.7598 15.3115 24.5677 15.7021 24.2812C15.8877 24.1445 16.0277 24.0762 16.1221 24.0762C16.262 24.0762 16.3792 24.1299 16.4736 24.2373C16.568 24.3415 16.6152 24.4587 16.6152 24.5889C16.6152 24.7354 16.5534 24.8639 16.4297 24.9746C15.5703 25.7363 14.7012 26.1172 13.8223 26.1172C13.1484 26.1172 12.5788 25.8584 12.1133 25.3408C11.6641 24.8395 11.4395 24.2471 11.4395 23.5635C11.4395 22.46 11.9017 21.3288 12.8262 20.1699C13.5977 19.2031 14.3757 18.7197 15.1602 18.7197C15.3197 18.7197 15.4629 18.7279 15.5898 18.7441C15.7168 18.7572 15.8291 18.7799 15.9268 18.8125C16.0407 18.6465 16.1888 18.5635 16.3711 18.5635C16.5957 18.5635 16.7373 18.7116 16.7959 19.0078C16.848 19.2715 16.874 19.5954 16.874 19.9795C16.874 20.113 16.8382 20.2301 16.7666 20.3311C16.6787 20.458 16.5534 20.5215 16.3906 20.5215ZM24.96 26.4053C24.7842 26.4053 24.6393 26.3141 24.5254 26.1318C24.4277 25.9756 24.3398 25.7152 24.2617 25.3506L24.0859 24.5107C23.9525 23.9899 23.7409 22.8408 23.4512 21.0635L22.4746 24.0078L22.1865 24.9355C22.0693 25.3034 21.9473 25.6045 21.8203 25.8389C21.6836 26.0863 21.4997 26.21 21.2686 26.21C21.0765 26.21 20.9251 26.1058 20.8145 25.8975C20.7428 25.7607 20.6777 25.5866 20.6191 25.375L20.4775 24.833C20.1488 23.6839 19.859 22.4535 19.6084 21.1416L19.4326 22.0156L18.8027 24.5938C18.7767 24.8965 18.6953 25.3441 18.5586 25.9365C18.4609 26.1904 18.2998 26.3174 18.0752 26.3174C17.9157 26.3174 17.7887 26.2604 17.6943 26.1465C17.613 26.0488 17.5723 25.9284 17.5723 25.7852C17.5723 25.2415 17.6846 24.5742 17.9092 23.7832L18.4463 21.8154L18.7295 20.2773C18.8727 19.5579 19.0241 19.0876 19.1836 18.8662C19.3138 18.6774 19.4749 18.583 19.667 18.583C19.8786 18.583 20.0365 18.7035 20.1406 18.9443C20.2676 19.234 20.4043 19.8249 20.5508 20.7168C20.7233 21.7878 20.9919 22.9466 21.3564 24.1934C21.8382 22.9401 22.2549 21.6348 22.6064 20.2773L22.7529 19.5645C22.8115 19.278 22.888 19.0469 22.9824 18.8711C23.1094 18.6302 23.2835 18.5098 23.5049 18.5098C23.7848 18.5098 23.998 18.7799 24.1445 19.3203C24.1966 19.5059 24.2601 19.89 24.335 20.4727C24.527 21.944 24.7663 23.2005 25.0527 24.2422L25.292 25.082C25.4157 25.5312 25.4775 25.8079 25.4775 25.9121C25.4775 26.0521 25.4238 26.1693 25.3164 26.2637C25.2122 26.3581 25.0934 26.4053 24.96 26.4053ZM31.3711 23.7783C31.3711 24.5726 31.0993 25.165 30.5557 25.5557C30.0804 25.8975 29.431 26.0684 28.6074 26.0684C28.4512 26.0684 28.2363 26.0618 27.9629 26.0488C27.6569 26.0326 27.4421 26.0244 27.3184 26.0244C27.2565 26.0439 27.1947 26.0537 27.1328 26.0537C26.7845 26.0537 26.6104 25.7656 26.6104 25.1895C26.6104 25.1048 26.6331 24.8216 26.6787 24.3398C26.7406 23.6888 26.7715 23.0801 26.7715 22.5137C26.7715 22.1849 26.7552 21.695 26.7227 21.0439C26.6901 20.3929 26.6738 19.9046 26.6738 19.5791C26.6738 19.2015 26.695 18.9671 26.7373 18.876C26.8154 18.6969 27.0189 18.6074 27.3477 18.6074C27.5918 18.6074 27.9596 18.6009 28.4512 18.5879C28.946 18.5749 29.3171 18.5684 29.5645 18.5684H30.7949C30.9382 18.5684 31.0537 18.6139 31.1416 18.7051C31.2327 18.793 31.2783 18.9085 31.2783 19.0518C31.2783 19.1917 31.2327 19.3073 31.1416 19.3984C31.0537 19.4896 30.9382 19.5352 30.7949 19.5352C30.5638 19.5352 29.5205 19.5482 27.665 19.5742C27.6813 20.1113 27.7106 20.7103 27.7529 21.3711C28.0394 21.3613 28.2412 21.3564 28.3584 21.3564C29.3577 21.3564 30.0837 21.5062 30.5361 21.8057C31.0928 22.1768 31.3711 22.8343 31.3711 23.7783ZM30.3994 23.7783C30.3994 23.1826 30.2334 22.7773 29.9014 22.5625C29.641 22.3932 29.1966 22.3086 28.5684 22.3086C28.3926 22.3086 28.1208 22.3216 27.7529 22.3477C27.7627 22.4746 27.7676 22.613 27.7676 22.7627C27.7676 23.0687 27.7253 23.8434 27.6406 25.0869C28.0671 25.0967 28.3893 25.1016 28.6074 25.1016C29.8021 25.1016 30.3994 24.6605 30.3994 23.7783Z" fill="black"/>
<mask id="mask0_452_408" style="mask-type:alpha" maskUnits="userSpaceOnUse" x="0" y="0" width="45" height="45">
<circle cx="22.145" cy="22.1701" r="21.1505" fill="#E3E3E3" stroke="black" stroke-width="1.98893"/>
</mask>
<g mask="url(#mask0_452_408)">
<g style="mix-blend-mode:soft-light">
<rect x="29.3145" y="-12.6139" width="6.01844" height="72.8232" transform="rotate(23.221 29.3145 -12.6139)" fill="white"/>
</g>
<g style="mix-blend-mode:soft-light">
<rect x="37.1385" y="-12.6139" width="1.86302" height="72.8232" transform="rotate(23.221 37.1385 -12.6139)" fill="white"/>
</g>
</g>
<defs>
<filter id="filter0_d_452_408" x="0" y="0.0251389" width="46.7761" height="46.7762" filterUnits="userSpaceOnUse" color-interpolation-filters="sRGB">
<feFlood flood-opacity="0" result="BackgroundImageFix"/>
<feColorMatrix in="SourceAlpha" type="matrix" values="0 0 0 0 0 0 0 0 0 0 0 0 0 0 0 0 0 0 127 0" result="hardAlpha"/>
<feOffset dx="2.48616" dy="2.48616"/>
<feComposite in2="hardAlpha" operator="out"/>
<feColorMatrix type="matrix" values="0 0 0 0 0.819608 0 0 0 0 0.819608 0 0 0 0 0.819608 0 0 0 1 0"/>
<feBlend mode="normal" in2="BackgroundImageFix" result="effect1_dropShadow_452_408"/>
<feBlend mode="normal" in="SourceGraphic" in2="effect1_dropShadow_452_408" result="shape"/>
</filter>
</defs>
</svg>
